<?xml version="1.0" encoding="UTF-8" standalone="no"?>
<svg
   xmlns:dc="http://purl.org/dc/elements/1.1/"
   xmlns:cc="http://creativecommons.org/ns#"
   xmlns:rdf="http://www.w3.org/1999/02/22-rdf-syntax-ns#"
   xmlns:svg="http://www.w3.org/2000/svg"
   xmlns="http://www.w3.org/2000/svg"
   xmlns:sodipodi="http://sodipodi.sourceforge.net/DTD/sodipodi-0.dtd"
   xmlns:inkscape="http://www.inkscape.org/namespaces/inkscape"
   width="256"
   height="256"
   viewBox="0 0 256 256"
   version="1.1"
   id="svg8"
   inkscape:version="1.0.1 (3bc2e813f5, 2020-09-07)"
   sodipodi:docname="ButtonVisible.svg">
  <defs
     id="defs2">
    <inkscape:path-effect
       effect="bend_path"
       id="path-effect974"
       is_visible="true"
       lpeversion="1"
       bendpath="m 66.458597,73.259799 c 0,0 85.862973,-7.576144 116.167543,3.535534 30.30458,11.111678 82.83251,38.385797 82.83251,38.385797"
       prop_scale="1.0007499"
       scale_y_rel="false"
       vertical="false"
       hide_knot="false" />
    <inkscape:path-effect
       effect="bend_path"
       id="path-effect955"
       is_visible="true"
       lpeversion="1"
       bendpath="m 47.460433,51.058724 78.509547,8.484459 54.61511,30.67116"
       prop_scale="1"
       scale_y_rel="false"
       vertical="false"
       hide_knot="false" />
    <inkscape:path-effect
       effect="bend_path"
       id="path-effect945"
       is_visible="true"
       lpeversion="1"
       bendpath="m 49.497475,53.790623 c 0,0 56.568545,2.272843 77.276665,3.788072 20.70813,1.515229 54.47586,34.83202 54.47586,34.83202"
       prop_scale="1"
       scale_y_rel="false"
       vertical="false"
       hide_knot="false" />
  </defs>
  <sodipodi:namedview
     id="base"
     pagecolor="#ffffff"
     bordercolor="#666666"
     borderopacity="1.0"
     inkscape:pageopacity="0.0"
     inkscape:pageshadow="2"
     inkscape:zoom="0.7"
     inkscape:cx="213.70707"
     inkscape:cy="94.05346"
     inkscape:document-units="px"
     inkscape:current-layer="layer1"
     inkscape:document-rotation="0"
     showgrid="false"
     units="px"
     inkscape:window-width="1294"
     inkscape:window-height="674"
     inkscape:window-x="36"
     inkscape:window-y="405"
     inkscape:window-maximized="0" />
  <metadata
     id="metadata5">
    <rdf:RDF>
      <cc:Work
         rdf:about="">
        <dc:format>image/svg+xml</dc:format>
        <dc:type
           rdf:resource="http://purl.org/dc/dcmitype/StillImage" />
        <dc:title />
      </cc:Work>
    </rdf:RDF>
  </metadata>
  <g
     inkscape:label="Ebene 1"
     inkscape:groupmode="layer"
     id="layer1">
    <path
       id="path847"
       style="fill:#ffffff;stroke-width:1.54015"
       d="M 137.08203 2.9511719 C 137.08203 2.9511719 139.52277 8.9064496 141.92773 12.683594 C 147.56978 21.544768 149.12222 33.175939 147.61133 49.505859 C 146.75753 58.733892 146.72775 59.075604 146.40625 59.470703 C 146.25467 59.656984 144.38521 59.201498 142.24023 58.484375 C 139.84999 57.685266 135.21277 56.342442 130.82422 55.230469 C 128.31698 54.59518 125.805 53.980823 123.29102 53.382812 C 122.77687 52.539983 122.25909 51.696898 121.74023 50.855469 C 120.25497 48.446892 116.2128 43.825981 112.08398 39.773438 C 110.81685 38.512733 109.56134 37.32291 108.40625 36.300781 C 101.0883 29.825224 86.837758 22.028382 80.755859 20.085938 C 78.496432 19.36432 74.472656 18.978516 74.472656 18.978516 C 76.341971 21.953063 77.924082 23.151783 82.060547 26.951172 C 87.223469 31.693373 92.8526 35.192437 97.109375 39.832031 C 100.74163 43.790917 106.0366 51.035087 105.56641 51.373047 C 105.46363 51.446908 104.33805 51.546516 102.83789 51.644531 C 95.702934 51.06121 87.186094 50.656754 76.234375 50.283203 C 38.03238 48.980175 31.204661 47.651063 17.160156 38.785156 C 13.649984 36.569281 10.777344 35.026268 10.777344 35.357422 C 10.777344 36.884065 28.189462 49.160625 35.046875 52.46875 L 42.708984 56.166016 L 43.541016 80.517578 C 44.162519 98.689831 45.174854 107.54076 47.525391 115.39062 C 60.285601 158.00461 103.39143 196.87396 158.83008 215.75195 C 169.68172 219.44714 193.82571 225.46918 210.22656 228.57227 C 214.46197 229.37362 218.96571 230.03803 220.23633 230.04883 C 223.81997 230.08076 210.67506 226.02432 206.76172 225.89062 C 204.85579 225.82553 203.29492 225.4088 203.29492 224.96484 C 203.29492 224.52088 205.67662 220.69816 208.58594 216.46875 C 213.35181 209.54039 220.23633 194.06953 220.23633 190.29102 C 220.23633 185.53342 224.08419 190.89447 231.89453 206.53516 C 236.76275 216.28405 240.92747 224.07644 241.15039 223.85352 C 241.65382 223.35011 231.39216 192.55483 224.85352 174.94727 C 222.88455 169.64514 220.70071 163.57914 219.23828 159.38086 C 225.15391 160.07109 231.24996 161.08265 238.60742 162.60547 C 240.89979 163.07995 241.11391 163.03276 241.42969 161.98828 C 241.74544 160.94387 241.50625 160.70342 238.27344 158.80273 C 233.57578 156.04082 226.33964 153.12501 218.86523 150.98438 C 217.92663 150.71556 216.98901 150.44636 216.05078 150.17773 C 214.51827 146.00271 212.57937 141.09162 210.49414 136.02344 C 210.08124 134.18342 209.63949 132.3336 209.19727 130.71484 C 208.06512 126.57059 207.10942 123.13452 207.10742 123.07812 C 207.10573 123.0217 209.18601 122.37057 211.74805 121.64844 C 217.63445 119.98925 223.9941 117.24678 228.34375 114.46094 C 228.87207 114.12762 229.37153 113.79219 229.83789 113.45703 C 233.84037 110.58044 237.67124 107.01354 238.20898 105.85742 C 241.20044 99.425944 238.91755 100.94869 236.0625 102.48047 C 235.83433 102.60289 234.99303 102.7676 233.87305 103.23242 C 232.55121 103.79037 230.81325 104.59738 229.0293 105.49805 C 224.16213 107.95537 222.21452 108.705 218.55469 109.47852 C 213.74449 110.49515 208.87428 110.94186 204.51172 110.77148 C 203.60408 110.73604 202.69844 110.70337 201.79297 110.67188 C 201.06407 109.44469 200.33106 108.21909 199.59375 106.99414 C 198.1842 104.68421 196.78029 102.38185 195.36719 100.08984 C 193.20181 96.577667 191.01572 93.088849 188.76367 89.628906 C 189.50916 89.001504 190.25809 88.376889 191.00977 87.753906 C 194.69851 84.696726 201.94486 77.41601 205.13086 73.476562 C 208.66074 69.111916 213.22543 61.960166 214.71484 58.367188 C 217.30033 51.059518 215.77344 49.380859 215.77344 49.380859 C 215.77344 49.380859 212.47742 53.299418 207.75195 57.736328 C 201.24951 63.841706 197.82469 68.305488 188.61133 74.408203 C 185.99528 76.140989 183.23258 77.966701 181.88672 78.814453 C 181.065 79.351901 180.56406 79.674129 180.47656 79.662109 C 180.23433 79.628837 178.512 78.009498 176.36719 76.193359 C 174.61748 74.711745 172.23189 72.973723 169.32031 71.099609 C 168.30568 70.44633 167.32433 69.843091 166.41992 69.306641 C 161.43607 66.350432 160.31712 65.701291 160.29492 64.935547 C 160.28116 64.460858 160.35917 60.720757 160.44727 56.767578 C 160.65753 47.327031 159.01792 33.322968 156.76172 26.046875 C 156.29525 24.542519 155.75675 23.061295 155.15625 21.615234 C 153.2872 17.199117 150.79074 13.148239 147.89258 9.8457031 C 145.01295 6.5642795 137.08203 2.9511719 137.08203 2.9511719 z M 58.748047 57.433594 L 66.513672 57.787109 C 66.973309 57.901919 67.52697 57.928633 68.150391 57.863281 L 79.8125 58.394531 C 118.01923 60.137322 145.50975 69.509515 167.61719 88.328125 L 175.83398 95.320312 L 168.86523 98.679688 C 159.08646 103.39262 149.01772 112.01846 143.40625 120.49023 L 138.625 127.70898 L 143.05859 130.4043 C 149.38729 134.25302 152.4707 139.34445 152.4707 145.94141 C 152.4707 150.11727 151.5412 152.32126 149.04688 154.06836 C 145.19735 156.76468 137.62615 157.18774 131.93359 155.02344 C 127.10769 153.18863 126.48164 155.08044 125.22852 175.33203 C 124.71747 183.59106 123.88128 190.34194 123.36914 190.33594 C 122.85701 190.32906 116.54784 185.95765 109.34766 180.62109 C 86.76359 163.88243 68.48076 140.40772 61.238281 118.8457 C 57.85588 108.77575 55.641055 73.996385 57.6875 63.087891 L 58.748047 57.433594 z " />
  </g>
</svg>
