<?xml version="1.0" encoding="UTF-8" standalone="no"?>
<svg
   xmlns:dc="http://purl.org/dc/elements/1.1/"
   xmlns:cc="http://creativecommons.org/ns#"
   xmlns:rdf="http://www.w3.org/1999/02/22-rdf-syntax-ns#"
   xmlns:svg="http://www.w3.org/2000/svg"
   xmlns="http://www.w3.org/2000/svg"
   xmlns:sodipodi="http://sodipodi.sourceforge.net/DTD/sodipodi-0.dtd"
   xmlns:inkscape="http://www.inkscape.org/namespaces/inkscape"
   width="128"
   height="128"
   viewBox="0 0 128 128"
   version="1.1"
   id="svg8"
   inkscape:version="1.0.1 (3bc2e813f5, 2020-09-07)"
   sodipodi:docname="ButtonAchievement.svg">
  <defs
     id="defs2" />
  <sodipodi:namedview
     id="base"
     pagecolor="#ffffff"
     bordercolor="#666666"
     borderopacity="1.0"
     inkscape:pageopacity="0.0"
     inkscape:pageshadow="2"
     inkscape:zoom="2.0000001"
     inkscape:cx="-47.439672"
     inkscape:cy="65.58843"
     inkscape:document-units="px"
     inkscape:current-layer="layer1"
     showgrid="false"
     units="px"
     inkscape:window-width="1920"
     inkscape:window-height="1009"
     inkscape:window-x="-8"
     inkscape:window-y="-8"
     inkscape:window-maximized="1"
     inkscape:document-rotation="0" />
  <metadata
     id="metadata5">
    <rdf:RDF>
      <cc:Work
         rdf:about="">
        <dc:format>image/svg+xml</dc:format>
        <dc:type
           rdf:resource="http://purl.org/dc/dcmitype/StillImage" />
        <dc:title />
      </cc:Work>
    </rdf:RDF>
  </metadata>
  <g
     inkscape:label="Layer 1"
     inkscape:groupmode="layer"
     id="layer1"
     transform="translate(0,-263.13332)">
    <path
       style="fill:#ffffff;stroke-width:1.01814;fill-opacity:1"
       d="m 34.473978,375.4949 v -10.69046 h 9.672318 9.672319 v -12.02717 -12.02718 l -3.145248,-2.99037 c -1.729886,-1.6447 -4.298331,-4.94611 -5.707655,-7.33648 -2.111129,-3.58069 -3.897391,-4.9629 -10.142647,-7.84839 -5.404942,-2.49724 -9.416954,-5.34047 -13.980614,-9.90784 -8.028008,-8.03449 -10.803802,-14.66022 -10.803802,-25.78838 v -7.59783 h 12.217664 12.217665 v -5.59977 -5.59976 h 29.526024 29.526031 v 5.59976 5.59977 h 12.217657 12.21766 v 7.59783 c 0,11.12815 -2.77578,17.75389 -10.8038,25.78839 -4.56366,4.56737 -8.575665,7.41059 -13.980608,9.90783 -6.245259,2.88551 -8.03152,4.26771 -10.142651,7.84841 -1.409322,2.39036 -3.977767,5.69176 -5.707652,7.33648 l -3.145248,2.99037 v 12.02718 12.02716 h 9.672317 9.672325 v 10.69046 10.69046 H 64.000002 34.473978 Z m 50.906939,0 v -2.54533 H 64.000002 42.619089 v 2.54533 2.54536 h 21.380913 21.380915 z m -48.79779,-67.3562 c -0.601537,-2.15242 -1.389769,-7.69335 -1.751629,-12.31315 l -0.657926,-8.39965 h -7.994907 c -4.397198,0 -7.994905,0.17148 -7.994905,0.38106 0,1.63543 3.608023,10.01001 5.636798,13.08358 2.47978,3.75687 12.545433,12.47247 13.408124,11.60981 0.246482,-0.24651 -0.04402,-2.20923 -0.645555,-4.36165 z m 62.230955,-1.30501 c 4.332358,-3.81481 8.709788,-10.96435 10.480208,-17.11697 0.64479,-2.24081 0.47993,-2.29081 -7.55454,-2.29081 h -8.213717 v 4.49206 c 0,2.47063 -0.687173,8.08312 -1.527045,12.47221 -0.83986,4.38908 -1.527108,8.1108 -1.527203,8.27049 -4.67e-4,0.78022 4.05845,-2.05488 8.342297,-5.82698 z M 72.896,303.21986 l 4.848875,-0.73127 -3.512206,-2.93902 c -3.479863,-2.91195 -3.502707,-2.98537 -2.48069,-7.97454 l 1.031512,-5.03549 -2.767171,1.9704 c -3.29007,2.34273 -7.91634,2.54917 -10.65788,0.47556 -3.046446,-2.30421 -3.303963,-1.92191 -2.137875,3.1739 1.059228,4.62885 1.01095,4.79381 -2.183355,7.46052 -3.827106,3.19503 -3.36786,4.09621 2.087415,4.09621 3.730767,0 4.091106,0.27071 5.652969,4.24681 l 1.668197,4.24683 1.800666,-4.1293 c 1.648824,-3.78111 2.209552,-4.19098 6.649543,-4.86061 z"
       id="path849" />
  </g>
</svg>
