<?xml version="1.0" encoding="UTF-8" standalone="no"?>
<!-- Created with Inkscape (http://www.inkscape.org/) -->

<svg
   xmlns:dc="http://purl.org/dc/elements/1.1/"
   xmlns:cc="http://creativecommons.org/ns#"
   xmlns:rdf="http://www.w3.org/1999/02/22-rdf-syntax-ns#"
   xmlns:svg="http://www.w3.org/2000/svg"
   xmlns="http://www.w3.org/2000/svg"
   xmlns:sodipodi="http://sodipodi.sourceforge.net/DTD/sodipodi-0.dtd"
   xmlns:inkscape="http://www.inkscape.org/namespaces/inkscape"
   version="1.1"
   id="svg2"
   width="170.66667"
   height="170.66667"
   viewBox="0 0 170.66667 170.66667"
   sodipodi:docname="ButtonPlay.svg"
   inkscape:version="0.92.4 (5da689c313, 2019-01-14)">
  <metadata
     id="metadata8">
    <rdf:RDF>
      <cc:Work
         rdf:about="">
        <dc:format>image/svg+xml</dc:format>
        <dc:type
           rdf:resource="http://purl.org/dc/dcmitype/StillImage" />
        <dc:title />
      </cc:Work>
    </rdf:RDF>
  </metadata>
  <defs
     id="defs6" />
  <sodipodi:namedview
     pagecolor="#ffffff"
     bordercolor="#666666"
     borderopacity="1"
     objecttolerance="10"
     gridtolerance="10"
     guidetolerance="10"
     inkscape:pageopacity="0"
     inkscape:pageshadow="2"
     inkscape:window-width="878"
     inkscape:window-height="657"
     id="namedview4"
     showgrid="false"
     inkscape:zoom="1.3828125"
     inkscape:cx="-7.9548025"
     inkscape:cy="114.25989"
     inkscape:window-x="0"
     inkscape:window-y="0"
     inkscape:window-maximized="0"
     inkscape:current-layer="svg2" />
  <path
     style="fill:#000000;stroke-width:1.33333337;fill-opacity:1"
     d="m 45.333334,86.151334 v -56.818 l 3.666667,0.0192 c 2.280672,0.012 21.810603,10.263971 51.666669,27.121871 40.64608,22.95037 48.05864,27.594694 48.38277,30.314139 0.35148,2.94893 -3.56452,5.331388 -47.90292,29.143726 -26.557127,14.26274 -49.979374,26.18084 -52.049436,26.48467 l -3.76375,0.5524 z M 90.870352,103.6891 C 107.62499,94.718107 121.33015,87.068107 121.32625,86.689102 121.32235,86.310096 110.37235,79.846402 96.992914,72.325336 83.613479,64.804269 69.516668,56.842133 65.666668,54.631698 l -7,-4.018972 v 34.693638 c 0,19.081496 0.391657,34.693636 0.87035,34.693636 0.478693,0 14.578693,-7.3399 31.333334,-16.3109 z"
     id="path819"
     inkscape:connector-curvature="0" />
</svg>
