<?xml version="1.0" encoding="UTF-8" standalone="no"?>
<svg
   xmlns:dc="http://purl.org/dc/elements/1.1/"
   xmlns:cc="http://creativecommons.org/ns#"
   xmlns:rdf="http://www.w3.org/1999/02/22-rdf-syntax-ns#"
   xmlns:svg="http://www.w3.org/2000/svg"
   xmlns="http://www.w3.org/2000/svg"
   xmlns:sodipodi="http://sodipodi.sourceforge.net/DTD/sodipodi-0.dtd"
   xmlns:inkscape="http://www.inkscape.org/namespaces/inkscape"
   width="256"
   height="256"
   viewBox="0 0 256 256"
   version="1.1"
   id="svg8"
   inkscape:version="1.0.1 (3bc2e813f5, 2020-09-07)"
   sodipodi:docname="ButtonInvisible.svg">
  <defs
     id="defs2">
    <inkscape:path-effect
       effect="bend_path"
       id="path-effect974"
       is_visible="true"
       lpeversion="1"
       bendpath="m 66.458597,73.259799 c 0,0 85.862973,-7.576144 116.167543,3.535534 30.30458,11.111678 82.83251,38.385797 82.83251,38.385797"
       prop_scale="1.0007499"
       scale_y_rel="false"
       vertical="false"
       hide_knot="false" />
    <inkscape:path-effect
       effect="bend_path"
       id="path-effect955"
       is_visible="true"
       lpeversion="1"
       bendpath="m 47.460433,51.058724 78.509547,8.484459 54.61511,30.67116"
       prop_scale="1"
       scale_y_rel="false"
       vertical="false"
       hide_knot="false" />
    <inkscape:path-effect
       effect="bend_path"
       id="path-effect945"
       is_visible="true"
       lpeversion="1"
       bendpath="m 49.497475,53.790623 c 0,0 56.568545,2.272843 77.276665,3.788072 20.70813,1.515229 54.47586,34.83202 54.47586,34.83202"
       prop_scale="1"
       scale_y_rel="false"
       vertical="false"
       hide_knot="false" />
  </defs>
  <sodipodi:namedview
     id="base"
     pagecolor="#ffffff"
     bordercolor="#666666"
     borderopacity="1.0"
     inkscape:pageopacity="0.0"
     inkscape:pageshadow="2"
     inkscape:zoom="0.7"
     inkscape:cx="38.95865"
     inkscape:cy="16.85637"
     inkscape:document-units="px"
     inkscape:current-layer="layer1"
     inkscape:document-rotation="0"
     showgrid="false"
     units="px"
     inkscape:window-width="1294"
     inkscape:window-height="674"
     inkscape:window-x="574"
     inkscape:window-y="253"
     inkscape:window-maximized="0" />
  <metadata
     id="metadata5">
    <rdf:RDF>
      <cc:Work
         rdf:about="">
        <dc:format>image/svg+xml</dc:format>
        <dc:type
           rdf:resource="http://purl.org/dc/dcmitype/StillImage" />
        <dc:title />
      </cc:Work>
    </rdf:RDF>
  </metadata>
  <g
     inkscape:label="Ebene 1"
     inkscape:groupmode="layer"
     id="layer1">
    <path
       style="fill:#000000;stroke-width:0.512652"
       d="m 77.410947,206.2658 c 0.831064,-3.82264 2.522657,-6.98428 4.962518,-12.04701 2.289829,-4.75142 4.264075,-7.31776 7.408615,-11.23931 l 1.832023,-2.28469 -8.789917,-8.84438 -8.789914,-8.84439 -2.703004,0.53965 c -4.339411,0.86632 -8.961208,2.4878 -13.355075,4.68544 -3.30264,1.65184 -5.897888,2.33394 -9.882644,5.94828 -2.71703,2.46446 -3.322123,3.18452 -5.55101,5.08726 -0.911437,0.77807 -4.927605,4.04271 -4.927605,4.04271 -0.248194,-1.25112 5.412307,-12.15588 8.478779,-16.01204 3.312735,-4.16583 9.354998,-9.10188 15.367831,-12.5545 2.325407,-1.33524 4.214665,-2.4722 4.198335,-2.52657 -0.01633,-0.0543 -1.852157,-3.15794 -4.079643,-6.89681 -2.227484,-3.73888 -6.234588,-9.87237 -7.167625,-12.79704 l -1.981238,-4.10507 -5.802713,-0.15437 c -7.803127,-0.20759 -15.576918,-0.87513 -20.86647,-2.2585 -3.640322,-0.95202 -5.705645,-2.31916 -6.704831,-3.22161 0,0 2.981642,-0.18479 5.321875,-0.35016 9.554815,-0.67528 16.932287,-1.56982 24.386119,-2.95691 0.958211,-0.17831 -1.914883,-2.24745 -2.950969,-11.23894 -1.578266,-13.696689 -3.340505,-31.276285 -1.992751,-41.912786 0.833397,-6.577189 14.936282,-9.449587 14.845726,-8.992202 -4.970075,25.103018 0.799998,58.129148 3.426522,64.155978 7.841625,17.99342 12.885008,24.675 23.33987,37.21124 11.422869,13.69696 23.628189,21.29935 38.391729,31.88918 24.65445,17.68456 49.69148,25.89378 68.31935,31.54456 10.96241,3.32545 14.2518,3.44248 17.32404,3.99575 8.16237,1.46993 11.60728,3.79841 11.60728,3.79841 0,0 -8.06865,-0.44337 -15.88045,-0.74707 -7.0007,-0.27217 -15.09183,-1.51607 -25.46042,-2.54056 -3.38521,-0.33448 -9.1273,-0.91781 -9.32731,-0.83355 -0.52128,0.21967 2.87791,8.5046 5.41568,13.19973 2.97403,5.50226 1.27755,2.27999 4.58002,8.32008 2.04545,3.74103 4.12885,8.1095 4.12885,8.1095 0,0 -3.90188,-0.68488 -5.26693,-1.39596 -5.45561,-2.83987 -9.4365,-6.22532 -14.89709,-14.21534 -3.53116,-5.16684 -8.06645,-13.48738 -9.20551,-16.88854 l -0.92242,-2.75433 -6.63494,-3.11842 c -3.64923,-1.71512 -8.18437,-3.94173 -10.0781,-4.948 -1.89373,-1.00627 -3.58127,-1.69421 -3.75009,-1.52875 -0.35702,0.34992 -1.74986,1.12303 -3.53216,10.2127 -1.81423,9.25247 -2.72985,11.18862 -2.87791,21.03109 -0.0646,4.29306 0.0758,12.88094 0.0758,12.88094 0,0 -2.08587,-3.63498 -3.41133,-7.69123 -1.65284,-5.05815 -1.77178,-4.81928 -2.59024,-11.00763 -0.93223,-7.04859 -2.07064,-15.16736 -1.0024,-24.19073 0.46804,-3.95347 0.87726,-7.60172 0.90941,-8.10725 0.0486,-0.76319 -0.88521,-1.5624 -5.50426,-4.71111 -3.05953,-2.08559 -7.39482,-5.18107 -9.63399,-6.87888 -2.23918,-1.69776 -4.28163,-3.08768 -4.53876,-3.08868 -0.25714,-9.8e-4 -3.441191,2.94885 -7.075712,6.55521 -7.562154,7.50368 -10.343529,11.78064 -14.992995,19.06497 -3.150694,4.93619 -3.91171,6.32542 -3.91171,6.32542 0,0 -0.658176,-3.77695 -0.06595,-6.50099 z"
       id="path879-3"
       sodipodi:nodetypes="ssscccsssssssssscsscsssssssssscssssscssscssssscssssssssscss"
       inkscape:transform-center-x="-4.8769431"
       inkscape:transform-center-y="11.990284" />
  </g>
</svg>
