<?xml version="1.0" encoding="UTF-8" standalone="no"?>
<!-- Created with Inkscape (http://www.inkscape.org/) -->

<svg
   xmlns:dc="http://purl.org/dc/elements/1.1/"
   xmlns:cc="http://creativecommons.org/ns#"
   xmlns:rdf="http://www.w3.org/1999/02/22-rdf-syntax-ns#"
   xmlns:svg="http://www.w3.org/2000/svg"
   xmlns="http://www.w3.org/2000/svg"
   xmlns:sodipodi="http://sodipodi.sourceforge.net/DTD/sodipodi-0.dtd"
   xmlns:inkscape="http://www.inkscape.org/namespaces/inkscape"
   version="1.1"
   id="svg2"
   width="170.66667"
   height="170.66667"
   viewBox="0 0 170.66667 170.66667"
   sodipodi:docname="ButtonExit.svg"
   inkscape:version="0.92.4 (5da689c313, 2019-01-14)">
  <metadata
     id="metadata8">
    <rdf:RDF>
      <cc:Work
         rdf:about="">
        <dc:format>image/svg+xml</dc:format>
        <dc:type
           rdf:resource="http://purl.org/dc/dcmitype/StillImage" />
        <dc:title></dc:title>
      </cc:Work>
    </rdf:RDF>
  </metadata>
  <defs
     id="defs6" />
  <sodipodi:namedview
     pagecolor="#ffffff"
     bordercolor="#666666"
     borderopacity="1"
     objecttolerance="10"
     gridtolerance="10"
     guidetolerance="10"
     inkscape:pageopacity="0"
     inkscape:pageshadow="2"
     inkscape:window-width="1233"
     inkscape:window-height="715"
     id="namedview4"
     showgrid="false"
     inkscape:zoom="1.3828125"
     inkscape:cx="85.195094"
     inkscape:cy="85.374215"
     inkscape:window-x="93"
     inkscape:window-y="196"
     inkscape:window-maximized="0"
     inkscape:current-layer="svg2" />
  <path
     style="fill:#ffffff;stroke-width:1.33333337;fill-opacity:1"
     d="m 77.333335,148 v -8 H 102 126.66667 V 88.666668 37.333334 H 102 77.333335 V 28.666667 20 h 34.000005 34 V 88.000002 156 h -34 -34.000005 z m 0.266667,-28.26666 c -0.880001,-0.88 -1.600001,-4.12109 -1.600001,-7.20242 v -5.60242 l -8.145606,-0.9454 C 57.765777,104.81219 46.631976,99.15339 39.546866,91.595675 30.608301,82.060872 24,63.992889 24,49.088456 c 0,-4.747032 0.264204,-5.088455 3.937609,-5.088455 3.413956,0 4.309197,0.840043 6.731794,6.316724 1.536803,3.474199 4.11488,7.731296 5.729059,9.460216 6.331467,6.781527 21.868937,13.510656 31.268206,13.541962 4.131187,0.01376 4.333333,-0.221924 4.333333,-5.052235 0,-2.786667 0.72,-5.786667 1.600001,-6.666667 3.59761,-3.597611 7.785797,-1.486598 22.361451,11.271056 13.783027,12.063889 14.705217,13.182545 14.705217,17.838035 0,4.408239 -0.86243,5.694298 -7.66667,11.432538 -4.21666,3.55606 -7.966665,6.77894 -8.333331,7.16197 -10.009666,10.45619 -17.387549,14.10885 -21.066667,10.42974 z"
     id="path4538"
     inkscape:connector-curvature="0" />
</svg>
